<?xml version="1.0" encoding="UTF-8"?>
<!DOCTYPE svg PUBLIC "-//W3C//DTD SVG 1.1//EN" "http://www.w3.org/Graphics/SVG/1.1/DTD/svg11.dtd">
<!-- Creator: CorelDRAW X7 -->
<svg xmlns="http://www.w3.org/2000/svg" xml:space="preserve" width="558px" height="146px" version="1.1" style="shape-rendering:geometricPrecision; text-rendering:geometricPrecision; image-rendering:optimizeQuality; fill-rule:evenodd; clip-rule:evenodd"
viewBox="0 0 558 146"
 xmlns:xlink="http://www.w3.org/1999/xlink">
 <defs>
  <style type="text/css">
   <![CDATA[
    .fil0 {fill:#ffffff}
   ]]>
  </style>
 </defs>
 <g id="Слой_x0020_1">
  <metadata id="CorelCorpID_0Corel-Layer"/>
  <path class="fil0" d="M222 35c-2,4 -4,8 -4,12l0 49 0 0 0 3c0,7 5,15 11,18l0 0 0 0 20 12 25 14c6,3 15,3 20,0l26 -15 20 -11c0,0 0,0 0,0 5,-4 10,-11 10,-18l0 -4 0 0 0 -48c0,-4 -2,-8 -4,-12l0 0c-2,-2 -4,-4 -6,-6l-31 -18 0 0 -15 -8c-5,-3 -14,-3 -20,0l-14 8 0 0 -31 18c-3,2 -5,4 -7,6zm187 54c1,-1 2,-2 2,-4l0 -24c0,-2 -1,-3 -2,-4 -1,-1 -3,-2 -5,-2l-25 0c-1,0 -3,1 -4,2 -2,1 -2,2 -2,4l0 24c0,2 0,3 2,4 1,2 3,2 4,2l25 0c2,0 4,0 5,-2zm8 -40c4,3 6,7 6,12l0 24c0,5 -2,9 -6,13 -3,3 -7,5 -13,5l-25 0c-5,0 -9,-2 -13,-5 -3,-4 -5,-8 -5,-13l0 -24c0,-5 2,-9 5,-12 4,-4 8,-6 13,-6l25 0c5,0 10,2 13,6zm15 -6l58 0 2 0 0 2 0 56 0 2 -2 0 -8 0 -2 0 0 -2 0 -46 -38 0 0 46 0 2 -2 0 -8 0 -2 0 0 -2 0 -56 0 -2 2 0zm126 2l0 8 0 2 -2 0 -23 0 0 46 0 2 -2 0 -9 0 -1 0 0 -2 0 -46 -24 0 -1 0 0 -2 0 -8 0 -2 1 0 59 0 2 0 0 2zm-508 34l-24 0 -2 0 0 -2 0 -8 0 -2 2 0 34 0 1 0 0 2 0 16c0,5 -2,9 -5,13 -3,3 -8,5 -13,5l-25 0c-5,0 -10,-2 -13,-5 -4,-4 -6,-8 -6,-13l0 -24c0,-5 2,-9 6,-12 3,-4 8,-6 13,-6l25 0c5,0 9,2 13,6 3,3 5,7 5,12l0 2 -1 0 -9 0 -1 0 0 -2c0,-2 -1,-3 -2,-4 -2,-1 -3,-2 -5,-2l-25 0c-2,0 -4,1 -5,2 -1,1 -2,2 -2,4l0 24c0,2 1,3 2,4 1,2 3,2 5,2l25 0c2,0 3,0 5,-2 1,-1 2,-2 2,-4l0 -6zm74 -6c3,3 6,7 6,12 0,5 -2,9 -6,13 -3,3 -8,5 -13,5l-25 0c-5,0 -10,-2 -13,-5 -3,-3 -5,-8 -5,-13l-1 -2 2 0 9 0 1 0 0 2c0,2 1,3 2,4 2,2 3,2 5,2l25 0c2,0 4,0 5,-2 1,-1 2,-2 2,-4 0,-2 -1,-3 -2,-4 -1,-1 -3,-2 -5,-2l-25 0c-5,0 -10,-2 -13,-5 -3,-3 -5,-8 -5,-13 0,-5 2,-9 5,-12 3,-4 8,-6 13,-6l25 0c5,0 10,2 13,6 3,3 5,7 6,12l0 2 -2 0 -9 0 -1 0 0 -2c0,-2 -1,-3 -2,-4 -1,-1 -3,-2 -5,-2l-25 0c-2,0 -3,1 -5,2 -1,1 -2,2 -2,4 0,2 1,3 2,5 2,1 3,1 5,1l25 0c5,0 10,2 13,6zm71 -8l-22 30 -1 2 -2 -2 -22 -30 0 36 0 2 -1 0 -9 0 -1 0 0 -2 0 -56 0 -2 1 0 9 0 1 0 0 1 24 33 23 -33 1 -1 1 0 8 0 2 0 0 2 0 56 0 2 -2 0 -8 0 -2 0 0 -2 0 -36zm139 -9c3,8 -8,10 -10,4 -1,-1 -1,-2 -1,-3 -1,-2 -1,-3 -2,-3l0 0c-3,-7 -9,-13 -15,-17 -7,-4 -14,-6 -22,-6 -12,0 -22,5 -30,13 -7,7 -12,18 -12,29 0,12 5,22 12,30 8,7 18,12 30,12 12,0 22,-5 30,-12 6,-7 10,-15 12,-24l-7 0c-1,7 -4,14 -10,19 -6,7 -15,11 -25,11 -10,0 -19,-4 -25,-11 -7,-6 -11,-15 -11,-25 0,-10 4,-19 11,-25 6,-7 15,-11 25,-11 10,0 19,4 25,11 6,5 9,12 10,20l13 0c3,0 5,2 5,5 0,0 0,1 0,1l0 0c0,0 0,0 0,0 0,15 -6,27 -15,37 -10,9 -23,15 -38,15 -15,0 -28,-6 -37,-15 -10,-10 -16,-23 -16,-38 0,-15 6,-28 16,-37 9,-10 22,-16 37,-16 10,0 19,3 27,8 9,5 15,12 20,20l0 0 0 0c1,2 1,3 2,4 0,1 1,3 1,4zm-26 23l-21 0c-4,0 -6,-3 -6,-6 0,-3 2,-5 6,-5l21 0c-1,-5 -3,-9 -6,-13 -5,-4 -11,-7 -18,-7 -7,0 -13,3 -18,7 -4,5 -7,11 -7,18 0,7 3,13 7,18 5,4 11,7 18,7 7,0 13,-3 18,-7 3,-3 5,-8 6,-12z"/>
 </g>
</svg>
